<?xml version="1.0" encoding="utf-8"?>
<!-- Generator: Adobe Illustrator 25.0.1, SVG Export Plug-In . SVG Version: 6.00 Build 0)  -->
<svg version="1.1" id="图层_1" xmlns="http://www.w3.org/2000/svg" xmlns:xlink="http://www.w3.org/1999/xlink" x="0px" y="0px"
	 viewBox="0 0 368.3 156.4" style="enable-background:new 0 0 368.3 156.4;" xml:space="preserve">
<style type="text/css">
	.st0{fill:#3E3A39;}
	.st1{fill:url(#SVGID_1_);}
	.st2{fill:url(#SVGID_2_);}
</style>
<path class="st0" d="M368.3,74.5l-5.7-1.8c-0.3-0.1-0.5-0.4-0.5-0.7V52.8c0-0.4,0.3-0.7,0.7-0.7h5.1v-6.8h-5.1
	c-0.4,0-0.7-0.3-0.7-0.7v-9.8h-8v9.8c0,0.4-0.3,0.7-0.7,0.7h-2.2v6.8h2.2c0.4,0,0.7,0.3,0.7,0.7V71c0,0.4-0.3,0.7-0.7,0.7h-8.5
	c-0.4,0-0.7-0.3-0.7-0.7V52.8c0-0.4,0.3-0.7,0.7-0.7h2.6v-6.8h-2.6c-0.4,0-0.7-0.3-0.7-0.7v-9.8h-8v9.8c0,0.4-0.3,0.7-0.7,0.7h-5.8
	v6.8h5.8c0.4,0,0.7,0.3,0.7,0.7v18.6c0,0.3-0.2,0.6-0.5,0.7l-8.9,2.9c-0.4,0.1-0.8,0-0.9-0.4c0-0.1-0.1-0.2-0.1-0.3v-9.7
	c0-0.4,0.3-0.7,0.7-0.7h2.8v-6.8h-2.8c-0.4,0-0.7-0.3-0.7-0.7V46.1c0-0.4,0.3-0.7,0.7-0.7h2.8v-6.8h-16.4v6.8h4
	c0.4,0,0.7,0.3,0.7,0.7v10.3c0,0.4-0.3,0.7-0.7,0.7h-4v6.8h4c0.4,0,0.7,0.3,0.7,0.7v12.8c0,0.3-0.2,0.6-0.5,0.7l-5.6,1.8l2.1,6.5
	l21.5-7c0.4-0.1,0.8,0,1,0.4c0,0.1,0,0.2,0,0.3v12.1h8v-13c0-0.4,0.3-0.7,0.7-0.7h8.5c0.4,0,0.7,0.3,0.7,0.7v13h8V80.7
	c0-0.4,0.3-0.7,0.7-0.8c0.1,0,0.2,0,0.3,0.1l3.1,1L368.3,74.5z"/>
<path class="st0" d="M292.7,43.5v-9.1h-8v9.1h-14v0.8h-0.1v28.7l-5.6,1.8c-0.4,0.1-0.8,0-0.9-0.4c0-0.1-0.1-0.2-0.1-0.3V55.5
	c0-0.4,0.3-0.7,0.7-0.7h4.3V48h-4.3c-0.4,0-0.7-0.3-0.7-0.7V34.7h-8v12.5c0,0.4-0.3,0.7-0.7,0.7l0,0H250v6.8h5.3
	c0.4,0,0.7,0.3,0.7,0.7c0,0,0,0,0,0v21.7c0,0.3-0.2,0.6-0.5,0.7l-6.1,2l2.1,6.5l19.7-6.4h13.5v12.2h8V80h14V43.5H292.7z M298,73.2
	h-18.7c-0.4,0-0.7-0.3-0.7-0.7V51c0-0.4,0.3-0.7,0.7-0.7H298c0.4,0,0.7,0.3,0.7,0.7v21.5C298.7,72.9,298.4,73.2,298,73.2z"/>
<rect x="283.5" y="55.6" class="st0" width="10.5" height="12.3"/>
<path class="st0" d="M191.2,36.7v25.7c0,11.2-1.8,19.5-5.5,24.8c2.2,1.7,4.5,3.6,6.8,5.6c4.5-6.9,6.8-16.8,6.8-29.6v-19
	c0-0.4,0.3-0.7,0.7-0.7h11.9c0.4,0,0.7,0.3,0.7,0.7c0,0,0,0,0,0v2.6c0,0.4-0.3,0.7-0.7,0.7l0,0h-9.4v5.6h8c0.2,0,0.4,0.2,0.4,0.4
	c0,0.2-0.1,0.4-0.3,0.4l-9.6,3.2V63h30.9v-5.8h-11c-0.2,0-0.4-0.2-0.4-0.4c0-0.2,0.1-0.4,0.3-0.4l9.7-3.2v-5.6H221
	c-0.4,0-0.7-0.3-0.7-0.7c0,0,0,0,0,0v-2.6c0-0.4,0.3-0.7,0.7-0.7l0,0h11.6c0.4,0,0.7,0.3,0.7,0.7c0,0,0,0,0,0v35.2
	c0,1.1-0.2,2.1-0.7,3.1c-0.5,1-2.1,1.4-4.9,1.4c-2.2,0-4.2-0.1-6.1-0.2c0.6,2.4,1.2,5,1.8,7.9c3.4,0,6.5,0,9.3-0.1
	c2.5,0,4.8-1.1,6.4-3c1.5-1.9,2.2-4.8,2.2-8.6V36.7H191.2z"/>
<path class="st0" d="M228.9,82.2V66.4h-25.1v15.8H228.9z M211.2,76v-3.3c0-0.4,0.3-0.7,0.7-0.7l0,0h8.7c0.4,0,0.7,0.3,0.7,0.7l0,0
	V76c0,0.4-0.3,0.7-0.7,0.7l0,0H212C211.6,76.8,211.2,76.4,211.2,76C211.2,76,211.2,76,211.2,76z"/>
<path class="st0" d="M185.5,121.8v-21.5h7.4c7.6,0,11.5,3.5,11.5,10.5c0.1,3-1,5.9-3.2,8c-2.3,2.1-5.2,3.1-8.3,3L185.5,121.8z
	 M190.1,105.3v11.4c0,0.7,0.6,1.3,1.3,1.3l0,0h1.2c1.9,0.1,3.8-0.6,5.1-1.9c1.3-1.4,2-3.3,1.9-5.3c0.1-1.9-0.6-3.7-1.9-5
	c-1.4-1.2-3.2-1.9-5.1-1.8h-1.2C190.7,104,190.1,104.6,190.1,105.3z"/>
<path class="st0" d="M219.7,121.8H207v-21.5h12.2v3.8h-6.4c-0.7,0-1.3,0.6-1.3,1.3v2.5c0,0.7,0.6,1.3,1.3,1.3l0,0h5.8v3.7h-5.8
	c-0.7,0-1.3,0.6-1.3,1.3v0v2.6c0,0.7,0.6,1.3,1.3,1.3l0,0h6.9V121.8z"/>
<path class="st0" d="M222,116.3c1.6,1.4,3.7,2.2,5.9,2.2c1,0.1,2-0.2,2.8-0.7c0.6-0.3,0.9-1,0.9-1.7c0-0.6-0.3-1.2-0.8-1.7
	c-1.2-0.9-2.6-1.6-4-2.1c-3.4-1.4-5-3.5-5-6.2c-0.1-1.8,0.8-3.6,2.3-4.7c1.8-1.2,3.9-1.8,6.1-1.7c1.8,0,3.6,0.2,5.3,0.8v4.3
	c-1.5-1-3.3-1.5-5.1-1.5c-0.9-0.1-1.9,0.2-2.7,0.6c-0.6,0.3-1,1-1,1.7c0,0.6,0.3,1.1,0.7,1.5c1,0.8,2.2,1.4,3.4,1.9
	c1.7,0.6,3.2,1.6,4.4,2.9c0.8,1,1.2,2.3,1.2,3.6c0.1,1.8-0.7,3.6-2.2,4.7c-1.8,1.2-4,1.8-6.2,1.6c-2.1,0.1-4.2-0.3-6.1-1.2
	L222,116.3z"/>
<path class="st0" d="M243.5,100.2v21.5H239v-21.5H243.5z"/>
<path class="st0" d="M265,120.3c-2.4,1.3-5.1,1.9-7.8,1.8c-3,0.2-5.9-0.9-8.1-2.9c-2.1-2.1-3.2-5-3-7.9c-0.1-3.1,1.1-6.1,3.3-8.3
	c2.3-2.2,5.4-3.3,8.6-3.2c2,0,4.1,0.3,6,1v4.3c-1.9-1-4-1.5-6.1-1.4c-1.9-0.1-3.7,0.6-5.1,2c-2.5,3.1-2.6,7.5-0.2,10.6
	c1.2,1.3,3,2,4.8,1.9c0.7,0,1.3-0.1,2-0.2c0.6-0.1,1-0.7,1-1.2v-2.2c0-0.7-0.6-1.3-1.3-1.3h-3v-3.7h8.9V120.3z"/>
<path class="st0" d="M287.2,121.8h-4.7l-8.4-13c-0.3-0.4-0.9-0.6-1.3-0.3c-0.3,0.2-0.4,0.5-0.4,0.8v12.5H268v-21.5h5l8.1,12.6
	c0.3,0.4,0.9,0.6,1.3,0.3c0.3-0.2,0.4-0.5,0.4-0.8v-12.1h4.3L287.2,121.8z"/>
<path class="st0" d="M303,121.8h-12.7v-21.5h12.2v3.8h-6.4c-0.7,0-1.3,0.6-1.3,1.3v0v2.5c0,0.7,0.6,1.3,1.3,1.3h5.9v3.7h-5.8
	c-0.7,0-1.3,0.6-1.3,1.3v2.6c0,0.7,0.6,1.3,1.3,1.3h6.8V121.8z"/>
<path class="st0" d="M323,121.8h-5.3l-3.4-5.6c-0.4-0.8-1-1.6-1.7-2.2c-0.4-0.3-0.9-0.5-1.4-0.5h-0.1c-0.7,0-1.3,0.6-1.3,1.3v7h-4.6
	v-21.5h7.5c5.1,0,7.7,1.9,7.7,5.8c0,1.4-0.4,2.7-1.3,3.8c-0.7,0.8-1.5,1.4-2.4,1.8c-0.3,0.1-0.4,0.5-0.3,0.8c0,0.1,0.1,0.1,0.2,0.2
	c0.9,0.8,1.7,1.7,2.3,2.7L323,121.8z M309.8,105v3.6c0,0.7,0.6,1.3,1.3,1.3h1c1,0,1.9-0.3,2.6-0.9c0.6-0.6,1-1.5,1-2.3
	c0-2-1.2-2.9-3.5-2.9h-1C310.5,103.7,309.8,104.2,309.8,105C309.8,104.9,309.8,105,309.8,105z"/>
<linearGradient id="SVGID_1_" gradientUnits="userSpaceOnUse" x1="3.0105" y1="71.1601" x2="101.3772" y2="132.6331" gradientTransform="matrix(1 0 0 -1 0 157.181)">
	<stop  offset="0.41" style="stop-color:#FDD000"/>
	<stop  offset="1" style="stop-color:#594600"/>
</linearGradient>
<path class="st1" d="M91.3,9l-5.8-5.8c-4.1-4.1-10.8-4.1-14.9,0c0,0,0,0,0,0L3.1,70.8l0,0C-1,74.9-1,81.5,3.1,85.6c0,0,0,0,0,0
	l9.7,9.8c2.2,2.2,5.3,3.3,8.4,3l32.4-3.1l2.8-29.6L53.6,66c-0.9,0.1-1.8-0.5-1.9-1.5c-0.1-0.6,0.1-1.1,0.6-1.5l39.2-39.2
	C95.4,19.7,95.4,13.1,91.3,9z"/>
<linearGradient id="SVGID_2_" gradientUnits="userSpaceOnUse" x1="86.4542" y1="-1.3641" x2="120.846" y2="147.6338" gradientTransform="matrix(1 0 0 -1 0 157.181)">
	<stop  offset="0" style="stop-color:#FDD000"/>
	<stop  offset="0.32" style="stop-color:#FDD100"/>
	<stop  offset="1" style="stop-color:#FCD475"/>
</linearGradient>
<path class="st2" d="M153.3,70.8l-9.7-9.8c-2.2-2.2-5.3-3.3-8.4-3l-28.2,2.7l-4.2,0.4L100,90.7l3.2-0.3c0.9-0.1,1.7,0.6,1.8,1.5
	c0,0.5-0.1,1-0.5,1.3l-13,13c-0.3,0.3-0.7,0.3-1,0c-0.1-0.1-0.2-0.4-0.2-0.6l8.1-84.5c0.3-3.1-0.8-6.2-3-8.4l-9.7-9.6
	C81.5-1,74.9-1.1,70.7,3c0,0-0.1,0.1-0.1,0.1l0,0L58,135.1c-0.3,3.1,0.8,6.2,3,8.4l10,9.8c4.1,4.1,10.7,4.1,14.8,0l0,0l0.1-0.1
	l67.5-67.6v-0.1l0,0C157.4,81.5,157.4,74.9,153.3,70.8z"/>
</svg>
